<?xml version="1.0" encoding="utf-8"?>
<svg width="155.213" height="155.213" viewBox="0 0 155.213 155.213" fill="none" xmlns="http://www.w3.org/2000/svg">
  <g id="SingleElement">
    <path d="M26 0L129.213 0C143.574 0 155.213 11.6386 155.213 26L155.213 129.213C155.213 143.574 143.574 155.213 129.213 155.213L26 155.213C11.6387 155.213 0 143.574 0 129.213L0 26C0 11.6386 11.6387 0 26 0L26 0Z" fill="#FFFFFF" fill-opacity="0.078" transform="matrix(1 0 -0 1 0 0)" />
    <path d="M2.51282 9.68283L49.4471 0L50.66 22.4243L45.9224 28.8254L0 34.5529L2.51282 9.68283Z" fill="#D5AE7B" fill-rule="evenodd" transform="translate(77 111.49)" />
    <path d="M9.89087 0.0534058L21.1652 6.52197L24.8038 29.8191L0.188049 31.4362C0.188049 31.4362 -0.933411 16.1884 2.3009 7.53418C5.53516 -1.12009 9.89087 0.0534058 9.89087 0.0534058Z" fill="#D5AE7B" fill-rule="evenodd" transform="translate(27 11.49)" />
    <path d="M0 6.79175C0 6.79175 19.1105 1.04294 32.4291 0.135803C45.7477 -0.771332 62.9999 3.16318 62.9999 3.16318L73.4886 23.3864L73.4886 105.589L38.7545 113.65C29.8868 117.877 37.958 138.273 30.96 139.62C12.4968 143.174 10.1472 129.507 10.1472 129.507C10.1472 129.507 11.5236 49.6646 7.47076 27.5768C3.41791 5.48904 0 6.79175 0 6.79175Z" fill="#FAD4A3" fill-rule="evenodd" transform="translate(43 6.49)" />
    <g transform="translate(66 44.49)">
      <path d="M5.06329 0C5.06329 0 34.9367 0 34.9367 0C37.7335 0 40 2.26654 40 5.06329C40 5.06329 40 34.9367 40 34.9367C40 37.7335 37.7335 40 34.9367 40C34.9367 40 5.06329 40 5.06329 40C2.26652 40 0 37.7335 0 34.9367C0 34.9367 0 5.06329 0 5.06329C0 2.26654 2.26652 0 5.06329 0C5.06329 0 5.06329 0 5.06329 0Z" fill="#85E4FF" stroke-width="1" stroke="#3D7787" transform="scale(1 1)" />
      <g transform="matrix(1 0 0 1 13.333 8.571)">
        <g transform="scale(1 1)">
          <path d="M0 0C0 0 1.76642 18.8229 1.76642 18.8229C1.76642 18.8229 0.0522747 0.0559111 0 0Z" fill="#D3D3D3" fill-rule="evenodd" stroke-width="4" stroke="#0066FF" stroke-linecap="round" stroke-linejoin="round" transform="matrix(1 0 0 1 11.987 3.418)" />
          <path d="M0.112288 22.0924C0.112288 22.0924 -0.388362 18.2064 0.724627 14.1315C1.58412 10.9847 2.39255 13.002 8.58169 14.6101C12.71 15.9658 13.5185 18.3117 12.6658 11.6105C11.8132 4.90936 12.195 -0.00909909 10.75 1.23981e-05C10.0276 0.00456805 4.49631 2.44628 2.93842 7.86474" fill="none" stroke-width="4" stroke="#0066FF" stroke-linecap="round" stroke-linejoin="round" transform="matrix(1 0 0 1 0 -0)" />
        </g>
      </g>
    </g>
    <path d="M14.4502 1.12604L21.3751 5.12408Q21.5965 5.2519 21.7993 5.40753Q22.0022 5.56315 22.1829 5.74392Q22.3637 5.92469 22.5193 6.12751Q22.675 6.33032 22.8028 6.55172Q22.9306 6.77312 23.0284 7.00931Q23.1263 7.2455 23.1924 7.49243Q23.2586 7.73937 23.292 7.99284Q23.3253 8.2463 23.3253 8.50195L23.3254 16.4982Q23.3254 16.7538 23.292 17.0073Q23.2586 17.2607 23.1925 17.5077Q23.1263 17.7546 23.0284 17.9908Q22.9306 18.227 22.8028 18.4484Q22.675 18.6698 22.5193 18.8726Q22.3637 19.0754 22.1829 19.2561Q22.0022 19.4369 21.7993 19.5925Q21.5965 19.7482 21.3751 19.876L14.4502 23.8741Q14.2288 24.002 13.9926 24.0998Q13.7564 24.1976 13.5095 24.2638Q13.2626 24.33 13.0091 24.3633Q12.7556 24.3967 12.5 24.3967Q12.2444 24.3967 11.9909 24.3633Q11.7374 24.3299 11.4905 24.2638Q11.2436 24.1976 11.0074 24.0998Q10.7712 24.0019 10.5498 23.8741L3.62488 19.876Q3.40348 19.7482 3.20067 19.5926Q2.99785 19.437 2.81708 19.2562Q2.63631 19.0754 2.48069 18.8726Q2.32506 18.6698 2.19724 18.4484Q2.06941 18.227 1.97158 17.9908Q1.87375 17.7546 1.80759 17.5077Q1.74142 17.2607 1.70805 17.0073Q1.67468 16.7538 1.67468 16.4982L1.67468 8.50195Q1.67468 8.24631 1.70805 7.99285Q1.74142 7.73939 1.80759 7.49246Q1.87375 7.24553 1.97158 7.00934Q2.06941 6.77316 2.19724 6.55177Q2.32506 6.33037 2.48069 6.12756Q2.63631 5.92474 2.81708 5.74398Q2.99785 5.56321 3.20067 5.40759Q3.40348 5.25196 3.62488 5.12415L10.5498 1.12598Q10.7712 0.998151 11.0074 0.900318Q11.2436 0.802485 11.4905 0.736319Q11.7375 0.670154 11.9909 0.636788Q12.2444 0.603421 12.5 0.603425Q12.7557 0.603429 13.0091 0.636804Q13.2626 0.670178 13.5095 0.736351Q13.7564 0.802524 13.9926 0.900365Q14.2288 0.998205 14.4502 1.12604Z" fill="#98231F" fill-rule="evenodd" transform="matrix(-0.174 0.985 -0.985 -0.174 84.276 71.49)" />
    <path d="M2.99994 0L15.716 6.10352e-05C17.3731 0 18.716 1.3429 18.716 3L18.716 15.7161C18.716 17.3731 17.3731 18.7161 15.716 18.716L2.99994 18.7161C1.34296 18.7161 -6.10352e-05 17.3731 0 15.716L0 3C0 1.34302 1.3429 0 2.99994 0L2.99994 0Z" fill="#D64B0A" transform="matrix(0.669 -0.743 0.743 0.669 86.297 93.49)" />
    <path d="M0 12.5C0 5.59644 5.59644 0 12.5 0C19.4036 0 25 5.59644 25 12.5C25 19.4036 19.4036 25 12.5 25C5.59644 25 0 19.4036 0 12.5Z" fill="#C7B81A" fill-rule="evenodd" transform="translate(58 21.49)" />
    <path d="M12.5501 3.39954L20.3256 18.9504Q20.3526 19.0045 20.3761 19.0601Q20.3997 19.1158 20.4196 19.1728Q20.4396 19.2299 20.4559 19.2881Q20.4721 19.3463 20.4847 19.4054Q20.4973 19.4645 20.506 19.5243Q20.5148 19.5841 20.5198 19.6443Q20.5247 19.7045 20.5259 19.7649Q20.527 19.8254 20.5243 19.8857Q20.5216 19.9461 20.515 20.0062Q20.5085 20.0662 20.4981 20.1258Q20.4878 20.1853 20.4736 20.2441Q20.4595 20.3028 20.4417 20.3606Q20.4239 20.4183 20.4025 20.4748Q20.381 20.5313 20.356 20.5863Q20.331 20.6414 20.3026 20.6947Q20.2741 20.748 20.2424 20.7994Q20.2106 20.8508 20.1756 20.9001Q20.1406 20.9494 20.1026 20.9963Q20.0646 21.0433 20.0236 21.0878Q19.9827 21.1322 19.939 21.174Q19.8953 21.2157 19.8491 21.2546Q19.8029 21.2935 19.7542 21.3294Q19.7056 21.3653 19.6548 21.398Q19.604 21.4307 19.5512 21.4602Q19.4984 21.4896 19.4439 21.5156Q19.3893 21.5416 19.3333 21.5641Q19.2772 21.5866 19.2198 21.6055Q19.1624 21.6244 19.1039 21.6396Q19.0454 21.6548 18.9861 21.6663Q18.9267 21.6777 18.8668 21.6854Q18.8068 21.693 18.7465 21.6969Q18.6862 21.7007 18.6258 21.7007L3.07483 21.7007Q3.0144 21.7007 2.95409 21.6969Q2.89379 21.693 2.83385 21.6854Q2.7739 21.6777 2.71457 21.6663Q2.65524 21.6548 2.59675 21.6396Q2.53827 21.6244 2.48087 21.6055Q2.42346 21.5866 2.36738 21.5641Q2.31129 21.5416 2.25675 21.5156Q2.20221 21.4896 2.14943 21.4602Q2.09665 21.4307 2.04585 21.398Q1.99504 21.3653 1.94642 21.3294Q1.8978 21.2935 1.85155 21.2546Q1.80531 21.2157 1.76163 21.174Q1.71795 21.1322 1.67701 21.0878Q1.63607 21.0433 1.59804 20.9963Q1.56001 20.9494 1.52504 20.9001Q1.49007 20.8508 1.4583 20.7994Q1.42653 20.748 1.39809 20.6947Q1.36965 20.6414 1.34466 20.5864Q1.31967 20.5313 1.29822 20.4748Q1.27677 20.4183 1.25895 20.3606Q1.24114 20.3029 1.22703 20.2441Q1.21292 20.1853 1.20257 20.1258Q1.19222 20.0663 1.18567 20.0062Q1.17913 19.9461 1.17641 19.8857Q1.1737 19.8254 1.17482 19.765Q1.17595 19.7045 1.18091 19.6443Q1.18587 19.5841 1.19465 19.5243Q1.20342 19.4645 1.21598 19.4054Q1.22854 19.3463 1.24483 19.2881Q1.26112 19.2299 1.28107 19.1728Q1.30102 19.1158 1.32456 19.0602Q1.3481 19.0045 1.37512 18.9504L9.15051 3.39954Q9.17993 3.3407 9.21335 3.28405Q9.24676 3.22739 9.28401 3.17318Q9.32127 3.11896 9.36218 3.06746Q9.40309 3.01595 9.44746 2.96739Q9.49184 2.91884 9.53946 2.87347Q9.58709 2.8281 9.63774 2.78613Q9.68839 2.74416 9.74182 2.70579Q9.79525 2.66743 9.8512 2.63284Q9.90716 2.59826 9.96537 2.56763Q10.0236 2.537 10.0838 2.51047Q10.144 2.48394 10.2058 2.46163Q10.2677 2.43933 10.331 2.42135Q10.3943 2.40338 10.4586 2.38982Q10.523 2.37627 10.5882 2.36719Q10.6533 2.35812 10.7189 2.35357Q10.7845 2.34902 10.8503 2.34902Q10.9161 2.34902 10.9817 2.35357Q11.0473 2.35812 11.1125 2.36719Q11.1776 2.37627 11.242 2.38982Q11.3064 2.40338 11.3696 2.42135Q11.4329 2.43933 11.4948 2.46163Q11.5567 2.48394 11.6169 2.51047Q11.6771 2.537 11.7353 2.56763Q11.7935 2.59826 11.8494 2.63284Q11.9054 2.66743 11.9588 2.70579Q12.0122 2.74416 12.0629 2.78613Q12.1135 2.8281 12.1612 2.87347Q12.2088 2.91884 12.2532 2.96739Q12.2975 3.01595 12.3385 3.06746Q12.3794 3.11896 12.4166 3.17318Q12.4539 3.22739 12.4873 3.28405Q12.5207 3.3407 12.5501 3.39954Z" fill="#EB3737" fill-rule="evenodd" transform="matrix(1 0.017 -0.017 1 91.145 32.49)" />
    <path d="M14.7207 5.09448Q26.344 2.81381 40.2269 1.31525Q68.99 -1.78958 81.3063 2.43494Q94.5197 6.96719 95.7153 58.4033Q96.2791 82.6544 94.6163 106.145L101.596 104.718L101.6 104.717L101.623 104.713L101.645 104.708L101.645 104.708Q101.741 104.688 101.839 104.678Q101.937 104.668 102.035 104.668Q102.133 104.667 102.231 104.676Q102.329 104.685 102.425 104.704Q102.522 104.723 102.616 104.751Q102.71 104.779 102.801 104.816Q102.892 104.853 102.979 104.899Q103.066 104.945 103.148 104.999Q103.23 105.053 103.306 105.115Q103.382 105.177 103.452 105.246Q103.522 105.315 103.585 105.391Q103.648 105.466 103.703 105.548Q103.758 105.629 103.804 105.716Q103.851 105.802 103.889 105.893Q103.927 105.983 103.956 106.077Q103.985 106.171 104.005 106.267Q104.049 106.482 104.045 106.702Q105.017 111.617 105.512 117.289Q106.583 129.556 103.703 134.227Q100.669 139.146 73.484 142.615Q61.4021 144.157 49.7464 145.005Q47.4596 145.989 44.7383 146.019Q38.0053 146.092 32.0635 139.757Q31.9373 139.622 31.7001 139.37Q27.7083 135.122 27.0043 131.649Q26.3728 128.533 26.4307 114.671Q26.5268 91.678 25.9969 70.2396Q25.6937 57.9673 25.4487 44.2493Q25.4135 42.2813 25.371 40.545Q5.31757 40.8043 2.35089 41.333Q2.15697 41.3676 1.96003 41.3636Q1.76309 41.3597 1.5707 41.3174Q1.37831 41.2751 1.19786 41.1961Q1.01741 41.1171 0.855835 41.0045Q0.694278 40.8918 0.557805 40.7497Q0.421332 40.6077 0.315189 40.4417Q0.209045 40.2758 0.13731 40.0923Q0.0655756 39.9089 0.0310059 39.715Q-0.00274658 39.5255 0.000244141 39.3332Q0.303223 19.6928 5.53632 10.7593Q8.37762 5.90881 12.3706 5.16455Q13.5397 4.94666 14.7207 5.09448ZM20.6414 8.06766Q20.7477 8.16019 20.8542 8.25555Q26.6339 13.4322 28.7198 28.4007Q29.0908 31.0633 29.3065 38.1498Q29.3389 38.3219 29.341 38.4969Q29.3427 38.6363 29.325 38.7745Q29.3953 41.2254 29.448 44.1779Q29.5008 47.1313 29.5562 50.0182Q29.7581 60.5245 29.9957 70.1408Q30.527 91.637 30.4307 114.687Q30.3745 128.14 30.9246 130.855Q31.4025 133.212 34.6149 136.63Q34.855 136.886 34.9811 137.02Q39.72 142.073 44.6945 142.019Q45.3245 142.012 45.9211 141.931Q46.0318 141.788 46.1662 141.668Q46.3007 141.548 46.4545 141.453Q46.6083 141.359 46.7765 141.294Q46.9447 141.228 47.1218 141.194Q47.2426 141.171 47.3652 141.163Q48.0146 141.119 48.6699 141.072Q50.2173 140.273 51.462 138.799Q53.359 136.553 53.1181 126.603Q52.9909 121.35 52.3967 116.662Q52.385 116.569 52.3819 116.476Q52.3789 116.383 52.3846 116.289Q52.3902 116.196 52.4046 116.103Q52.419 116.011 52.4419 115.92Q52.4648 115.83 52.4961 115.742Q52.5274 115.653 52.5668 115.569Q52.6062 115.484 52.6533 115.403Q52.7004 115.322 52.7549 115.246Q52.8093 115.17 52.8707 115.1Q52.932 115.029 52.9996 114.964Q53.0672 114.9 53.1406 114.842Q53.214 114.784 53.2924 114.733Q53.3709 114.682 53.4537 114.639Q53.5366 114.595 53.6232 114.56Q53.7097 114.524 53.7992 114.497Q53.8887 114.47 53.9803 114.451L75.5619 110.04L90.5461 106.977Q90.6069 106.145 90.665 105.312Q92.2692 82.2753 91.7164 58.4962Q90.5855 9.84653 80.0085 6.21857Q68.5342 2.28287 40.6562 5.29214Q29.9621 6.4465 20.6414 8.06766ZM24.7581 28.9528Q25.0575 31.1016 25.2525 36.5463Q9.59088 36.7508 4.05188 37.1439Q4.57629 20.3121 8.98773 12.7811Q10.906 9.50644 13.1036 9.09683Q15.3339 8.68109 18.1855 11.2351Q22.8743 15.4348 24.7581 28.9528ZM72.9777 138.647Q63.9202 139.803 55.1072 140.566Q58.5406 135.054 56.5873 118.001L91.8348 110.796L100.414 109.042Q101.129 113.077 101.527 117.637Q102.483 128.584 100.298 132.127Q98.2672 135.42 72.9777 138.647Z" fill="#808080" fill-rule="evenodd" transform="translate(24 4.49)" />
  </g>
</svg>